<?xml version="1.0" standalone="no"?>
<svg xmlns:xlink="http://www.w3.org/1999/xlink" id="wave" style="transform:rotate(0deg); transition: 0.3s" viewBox="0 0 1440 140" version="1.1" xmlns="http://www.w3.org/2000/svg"><defs><linearGradient id="sw-gradient-0" x1="0" x2="0" y1="1" y2="0"><stop stop-color="rgba(134, 46, 156, 1)" offset="0%"/><stop stop-color="rgba(134, 46, 156, 1)" offset="100%"/></linearGradient></defs><path style="transform:translate(0, 0px); opacity:1" fill="url(#sw-gradient-0)" d="M0,42L60,49C120,56,240,70,360,65.3C480,61,600,37,720,37.3C840,37,960,61,1080,67.7C1200,75,1320,65,1440,60.7C1560,56,1680,56,1800,46.7C1920,37,2040,19,2160,18.7C2280,19,2400,37,2520,46.7C2640,56,2760,56,2880,65.3C3000,75,3120,93,3240,102.7C3360,112,3480,112,3600,105C3720,98,3840,84,3960,65.3C4080,47,4200,23,4320,28C4440,33,4560,65,4680,67.7C4800,70,4920,42,5040,35C5160,28,5280,42,5400,39.7C5520,37,5640,19,5760,28C5880,37,6000,75,6120,88.7C6240,103,6360,93,6480,77C6600,61,6720,37,6840,35C6960,33,7080,51,7200,65.3C7320,79,7440,89,7560,93.3C7680,98,7800,98,7920,93.3C8040,89,8160,79,8280,67.7C8400,56,8520,42,8580,35L8640,28L8640,140L8580,140C8520,140,8400,140,8280,140C8160,140,8040,140,7920,140C7800,140,7680,140,7560,140C7440,140,7320,140,7200,140C7080,140,6960,140,6840,140C6720,140,6600,140,6480,140C6360,140,6240,140,6120,140C6000,140,5880,140,5760,140C5640,140,5520,140,5400,140C5280,140,5160,140,5040,140C4920,140,4800,140,4680,140C4560,140,4440,140,4320,140C4200,140,4080,140,3960,140C3840,140,3720,140,3600,140C3480,140,3360,140,3240,140C3120,140,3000,140,2880,140C2760,140,2640,140,2520,140C2400,140,2280,140,2160,140C2040,140,1920,140,1800,140C1680,140,1560,140,1440,140C1320,140,1200,140,1080,140C960,140,840,140,720,140C600,140,480,140,360,140C240,140,120,140,60,140L0,140Z"/></svg>